<svg width="28" height="28" viewBox="0 0 28 28" fill="none" xmlns="http://www.w3.org/2000/svg">
<g clip-path="url(#clip0)">
<path d="M15.1666 8.16667H12.8333V12.8333H8.16659V15.1667H12.8333V19.8333H15.1666V15.1667H19.8333V12.8333H15.1666V8.16667ZM13.9999 2.33333C7.55992 2.33333 2.33325 7.56 2.33325 14C2.33325 20.44 7.55992 25.6667 13.9999 25.6667C20.4399 25.6667 25.6666 20.44 25.6666 14C25.6666 7.56 20.4399 2.33333 13.9999 2.33333ZM13.9999 23.3333C8.85492 23.3333 4.66659 19.145 4.66659 14C4.66659 8.855 8.85492 4.66667 13.9999 4.66667C19.1449 4.66667 23.3333 8.855 23.3333 14C23.3333 19.145 19.1449 23.3333 13.9999 23.3333Z" fill="white"/>
</g>
<defs>
<clipPath id="clip0">
<rect width="28" height="28" fill="white"/>
</clipPath>
</defs>
</svg>
