<svg width="23" height="20" viewBox="0 0 23 20" fill="none" xmlns="http://www.w3.org/2000/svg">
<g clip-path="url(#clip0)">
<path d="M11.1954 5.79142L3.83343 11.7231V18.125C3.83343 18.2908 3.90074 18.4497 4.02056 18.567C4.14037 18.6842 4.30287 18.75 4.47232 18.75L8.94692 18.7387C9.11581 18.7379 9.27749 18.6716 9.39662 18.5545C9.51574 18.4374 9.58262 18.2789 9.58261 18.1137V14.375C9.58261 14.2093 9.64992 14.0503 9.76974 13.9331C9.88955 13.8159 10.0521 13.75 10.2215 13.75H12.777C12.9465 13.75 13.109 13.8159 13.2288 13.9331C13.3486 14.0503 13.4159 14.2093 13.4159 14.375V18.111C13.4157 18.1932 13.432 18.2747 13.464 18.3507C13.496 18.4268 13.543 18.4959 13.6024 18.5542C13.6617 18.6124 13.7322 18.6586 13.8099 18.6901C13.8875 18.7217 13.9708 18.7379 14.0548 18.7379L18.5278 18.75C18.6973 18.75 18.8598 18.6842 18.9796 18.567C19.0994 18.4497 19.1667 18.2908 19.1667 18.125V11.7188L11.8063 5.79142C11.7198 5.72319 11.612 5.68598 11.5009 5.68598C11.3897 5.68598 11.2819 5.72319 11.1954 5.79142ZM22.8243 9.82306L19.4862 7.13127V1.72072C19.4862 1.5964 19.4357 1.47717 19.3458 1.38926C19.256 1.30135 19.1341 1.25197 19.007 1.25197H16.7709C16.6438 1.25197 16.5219 1.30135 16.4321 1.38926C16.3422 1.47717 16.2917 1.5964 16.2917 1.72072V4.55705L12.7168 1.6797C12.3737 1.40352 11.9432 1.25252 11.4989 1.25252C11.0546 1.25252 10.6241 1.40352 10.281 1.6797L0.173408 9.82306C0.124888 9.86229 0.0847448 9.91049 0.0552729 9.96491C0.0258011 10.0193 0.00757797 10.0789 0.00164486 10.1402C-0.00428824 10.2015 0.00218492 10.2633 0.0206945 10.3222C0.0392041 10.3811 0.0693873 10.4358 0.10952 10.4832L1.12775 11.6942C1.16777 11.7418 1.217 11.7812 1.27261 11.8102C1.32823 11.8391 1.38914 11.8571 1.45186 11.863C1.51458 11.8689 1.57787 11.8627 1.63812 11.8446C1.69837 11.8266 1.75439 11.7971 1.80297 11.7578L11.1954 4.18986C11.2819 4.12163 11.3897 4.08442 11.5009 4.08442C11.612 4.08442 11.7198 4.12163 11.8063 4.18986L21.1992 11.7578C21.2477 11.7971 21.3036 11.8266 21.3638 11.8447C21.4239 11.8628 21.4872 11.8692 21.5498 11.8634C21.6125 11.8576 21.6734 11.8397 21.729 11.8109C21.7846 11.7821 21.8339 11.7428 21.874 11.6953L22.8922 10.4844C22.9323 10.4367 22.9624 10.3817 22.9807 10.3226C22.999 10.2634 23.0051 10.2014 22.9988 10.1399C22.9925 10.0785 22.9738 10.0188 22.9439 9.96446C22.914 9.91008 22.8733 9.86203 22.8243 9.82306Z" fill="white"/>
</g>
<defs>
<clipPath id="clip0">
<rect width="23" height="20" fill="white"/>
</clipPath>
</defs>
</svg>
